<?xml version="1.0" encoding="UTF-8"?>
<svg width="18px" height="18px" viewBox="0 0 18 18" version="1.1" xmlns="http://www.w3.org/2000/svg" xmlns:xlink="http://www.w3.org/1999/xlink">
    <title>place_black_24dp (1)</title>
    <g id="Page-1" stroke="none" stroke-width="1" fill="none" fill-rule="evenodd">
        <g id="Desktop-HD" transform="translate(-120.000000, -2529.000000)">
            <g id="Group-20" transform="translate(0.000000, 2358.000000)">
                <g id="Group-17" transform="translate(72.000000, 0.000000)">
                    <g id="Group-31" transform="translate(48.000000, 48.000000)">
                        <g id="Group-27" transform="translate(0.000000, 85.000000)">
                            <g id="place_black_24dp-(1)" transform="translate(0.000000, 38.000000)">
                                <polygon id="Path" points="0 0 18 0 18 18 0 18"></polygon>
                                <path d="M9,9 C8.175,9 7.5,8.325 7.5,7.5 C7.5,6.675 8.175,6 9,6 C9.825,6 10.5,6.675 10.5,7.5 C10.5,8.325 9.825,9 9,9 Z M13.5,7.65 C13.5,4.9275 11.5125,3 9,3 C6.4875,3 4.5,4.9275 4.5,7.65 C4.5,9.405 5.9625,11.73 9,14.505 C12.0375,11.73 13.5,9.405 13.5,7.65 Z M9,1.5 C12.15,1.5 15,3.915 15,7.65 C15,10.14 12.9975,13.0875 9,16.5 C5.0025,13.0875 3,10.14 3,7.65 C3,3.915 5.85,1.5 9,1.5 Z" id="Shape" fill="#595959" fill-rule="nonzero"></path>
                            </g>
                        </g>
                    </g>
                </g>
            </g>
        </g>
    </g>
</svg>