<?xml version="1.0" encoding="UTF-8"?>
<svg width="18px" height="18px" viewBox="0 0 18 18" version="1.1" xmlns="http://www.w3.org/2000/svg" xmlns:xlink="http://www.w3.org/1999/xlink">
    <title>email-24px</title>
    <g id="Page-1" stroke="none" stroke-width="1" fill="none" fill-rule="evenodd">
        <g id="Desktop-HD" transform="translate(-120.000000, -2567.000000)">
            <g id="Group-20" transform="translate(0.000000, 2358.000000)">
                <g id="Group-17" transform="translate(72.000000, 0.000000)">
                    <g id="Group-31" transform="translate(48.000000, 48.000000)">
                        <g id="Group-27" transform="translate(0.000000, 85.000000)">
                            <g id="email-24px" transform="translate(0.000000, 76.000000)">
                                <polygon id="Path" points="0 0 18 0 18 18 0 18"></polygon>
                                <path d="M16.5,4.5 C16.5,3.675 15.825,3 15,3 L3,3 C2.175,3 1.5,3.675 1.5,4.5 L1.5,13.5 C1.5,14.325 2.175,15 3,15 L15,15 C15.825,15 16.5,14.325 16.5,13.5 L16.5,4.5 Z M15,4.5 L9,8.25 L3,4.5 L15,4.5 Z M15,13.5 L3,13.5 L3,6 L9,9.75 L15,6 L15,13.5 Z" id="Shape" fill="#595959" fill-rule="nonzero"></path>
                            </g>
                        </g>
                    </g>
                </g>
            </g>
        </g>
    </g>
</svg>